<svg width="89" height="89" viewBox="0 0 89 89" fill="none" xmlns="http://www.w3.org/2000/svg">
<rect x="0.5" y="0.5" width="87.1825" height="87.1825" rx="43.5913" stroke="#EDEBEC"/>
<path d="M31.6637 35.129H33.3964C34.3155 35.129 35.1969 34.7639 35.8468 34.114C36.4967 33.4641 36.8618 32.5827 36.8618 31.6636C36.8618 31.2041 37.0443 30.7634 37.3693 30.4384C37.6942 30.1135 38.135 29.9309 38.5945 29.9309H48.9908C49.4503 29.9309 49.891 30.1135 50.216 30.4384C50.5409 30.7634 50.7235 31.2041 50.7235 31.6636C50.7235 32.5827 51.0886 33.4641 51.7385 34.114C52.3884 34.7639 53.2698 35.129 54.1889 35.129H55.9216C56.8407 35.129 57.7221 35.4941 58.372 36.144C59.0219 36.7939 59.387 37.6754 59.387 38.5945V54.1889C59.387 55.1079 59.0219 55.9894 58.372 56.6393C57.7221 57.2892 56.8407 57.6543 55.9216 57.6543H31.6637C30.7446 57.6543 29.8631 57.2892 29.2132 56.6393C28.5633 55.9894 28.1982 55.1079 28.1982 54.1889V38.5945C28.1982 37.6754 28.5633 36.7939 29.2132 36.144C29.8631 35.4941 30.7446 35.129 31.6637 35.129Z" stroke="#9F3247" stroke-width="1.48518" stroke-linecap="round" stroke-linejoin="round"/>
<path d="M43.7926 50.7234C46.6635 50.7234 48.9907 48.3961 48.9907 45.5253C48.9907 42.6544 46.6635 40.3271 43.7926 40.3271C40.9218 40.3271 38.5945 42.6544 38.5945 45.5253C38.5945 48.3961 40.9218 50.7234 43.7926 50.7234Z" stroke="#9F3247" stroke-width="1.48518" stroke-linecap="round" stroke-linejoin="round"/>
</svg>
