<svg width="89" height="89" viewBox="0 0 89 89" fill="none" xmlns="http://www.w3.org/2000/svg">
<rect x="0.5" y="0.5" width="87.1825" height="87.1825" rx="43.5913" stroke="#EDEBEC"/>
<path d="M42.3138 29.8518C41.9639 29.8518 41.6802 30.1355 41.6802 30.4855C41.6802 30.8354 41.9639 31.1192 42.3138 31.1192V29.8518ZM45.7793 31.1192C46.1292 31.1192 46.4129 30.8354 46.4129 30.4855C46.4129 30.1355 46.1292 29.8518 45.7793 29.8518V31.1192ZM44.4263 53.9347C44.4263 53.5847 44.1426 53.301 43.7926 53.301C43.4426 53.301 43.1589 53.5847 43.1589 53.9347H44.4263ZM43.1589 53.9515C43.1589 54.3015 43.4426 54.5852 43.7926 54.5852C44.1426 54.5852 44.4263 54.3015 44.4263 53.9515H43.1589ZM36.8616 30.5646H50.7233V29.2972H36.8616V30.5646ZM50.7233 30.5646C51.3303 30.5646 51.8223 31.0566 51.8223 31.6636H53.0897C53.0897 30.3567 52.0302 29.2972 50.7233 29.2972V30.5646ZM51.8223 31.6636V55.9216H53.0897V31.6636H51.8223ZM51.8223 55.9216C51.8223 56.5285 51.3303 57.0206 50.7233 57.0206V58.288C52.0302 58.288 53.0897 57.2285 53.0897 55.9216H51.8223ZM50.7233 57.0206H36.8616V58.288H50.7233V57.0206ZM36.8616 57.0206C36.2546 57.0206 35.7626 56.5285 35.7626 55.9216H34.4952C34.4952 57.2285 35.5547 58.288 36.8616 58.288V57.0206ZM35.7626 55.9216V31.6636H34.4952V55.9216H35.7626ZM35.7626 31.6636C35.7626 31.0566 36.2546 30.5646 36.8616 30.5646V29.2972C35.5547 29.2972 34.4952 30.3567 34.4952 31.6636H35.7626ZM42.3138 31.1192H45.7793V29.8518H42.3138V31.1192ZM43.1589 53.9347V53.9515H44.4263V53.9347H43.1589ZM35.6604 51.9244H51.9248V50.6571H35.6604V51.9244Z" fill="#9F3247"/>
</svg>
